<?xml version="1.0" encoding="UTF-8"?>
<!DOCTYPE svg PUBLIC "-//W3C//DTD SVG 1.1//EN" "http://www.w3.org/Graphics/SVG/1.1/DTD/svg11.dtd">
<!-- Creator: CorelDRAW X6 -->
<svg xmlns="http://www.w3.org/2000/svg" xml:space="preserve" width="20in" height="8in" version="1.1" style="shape-rendering:geometricPrecision; text-rendering:geometricPrecision; image-rendering:optimizeQuality; fill-rule:evenodd; clip-rule:evenodd"
viewBox="0 0 20000 8000"
 xmlns:xlink="http://www.w3.org/1999/xlink">
 <defs>
  <style type="text/css">
   <![CDATA[
    .fil1 {fill:#502179}
    .fil0 {fill:#502179;fill-rule:nonzero}
   ]]>
  </style>
 </defs>
 <g id="Layer_x0020_1">
  <metadata id="CorelCorpID_0Corel-Layer"/>
  <path class="fil0" d="M9586 3788l0 -179 95 0 246 0 0 179 0 601 -246 0 0 -601 -95 0zm-1654 602l0 -1000 252 0 0 219 376 0 0 -219 252 0 0 1000 -252 0 0 -561 -376 0 0 561 -252 0zm998 -770l0 195 283 0c36,0 62,8 78,25 11,12 19,29 22,50 1,7 2,15 2,24l-118 0c-68,0 -128,8 -180,24 -52,16 -93,42 -123,76 -30,35 -45,80 -45,136 0,50 12,92 35,128 23,36 55,63 95,82 41,19 87,33 139,28l432 0 0 -19 0 -453c0,-69 -14,-127 -43,-172 -28,-45 -69,-79 -123,-102 -54,-23 -119,-34 -196,-34l-3 0 -256 0 0 11zm267 421l118 0 0 53 0 130 -118 0c-33,0 -59,-8 -77,-25 -18,-17 -27,-39 -27,-66 0,-28 9,-50 27,-67 18,-17 44,-25 77,-25zm991 349l-224 -780 252 0 154 575 35 0 130 -575 236 0 -192 780 -75 0 -79 0 -66 0 -94 0 -77 0zm-510 -1102l246 0 0 212 -246 0 0 -212z"/>
  <path class="fil0" d="M11085 4390l3 -780 -317 0 0 0 0 0 0 -219 54 0 106 0 726 0 0 219 -317 0 -3 780 -252 0zm2255 -1000l-246 0 0 1000 246 0 0 -162c0,-140 0,-280 0,-420l116 0c34,0 62,11 83,33 21,22 31,50 31,85l0 465 246 0 0 -434c0,-56 -5,-106 -16,-149 -11,-44 -27,-80 -49,-110 -43,-59 -105,-88 -186,-88l-226 0 0 -133 0 -86zm-642 1010c-65,0 -121,-11 -169,-32 -48,-21 -88,-50 -120,-86 -32,-36 -56,-77 -72,-123 -16,-46 -24,-94 -24,-143l0 -27c0,-52 8,-102 25,-149 17,-47 41,-88 74,-125 32,-36 73,-65 120,-85 48,-21 103,-31 165,-31 69,0 129,14 181,41 52,27 94,64 125,112 31,47 49,102 52,163l-241 0c-3,-30 -14,-55 -33,-76 -19,-21 -48,-31 -85,-31 -32,0 -58,8 -78,24 -20,16 -35,39 -45,68 -10,29 -15,63 -15,103 0,37 4,70 13,99 9,29 23,51 43,67 20,16 48,24 82,24 25,0 46,-5 64,-14 17,-9 31,-22 41,-39 10,-17 16,-36 19,-59l241 0c-4,63 -21,119 -53,167 -32,48 -75,85 -128,112 -53,27 -114,41 -183,41zm-791 0c-63,0 -119,-11 -168,-32 -49,-22 -90,-51 -123,-88 -33,-37 -59,-79 -76,-125 -18,-46 -26,-93 -26,-142l0 -27c0,-51 9,-99 26,-146 18,-46 43,-88 76,-124 33,-36 73,-65 121,-86 48,-21 102,-32 162,-32 80,0 148,18 204,54 56,36 99,84 129,143 30,59 45,123 45,193l0 52c-178,0 -356,0 -534,0 3,25 8,47 16,67 12,30 30,53 54,70 24,16 56,24 95,24 34,0 62,-6 85,-18 22,-12 38,-28 47,-47l225 0c-11,51 -32,96 -64,135 -32,40 -73,71 -122,93 -49,23 -106,34 -170,34zm134 -484c-2,-10 -5,-20 -9,-29 -11,-29 -28,-52 -50,-67 -22,-15 -50,-23 -83,-23 -32,0 -61,7 -85,22 -24,15 -42,37 -55,68 -4,9 -7,19 -10,29m2 0l289 0"/>
  <polygon class="fil1" points="7551,4833 7551,3034 7206,3276 6862,3517 6862,3772 7547,4827 "/>
  <polygon class="fil1" points="7551,4966 6499,3346 6341,3736 6184,4126 6447,4531 6710,4936 7130,4951 "/>
  <path class="fil0" d="M8033 4798c-23,0 -41,-4 -56,-13 -15,-9 -26,-21 -34,-36 -7,-16 -11,-33 -11,-54l0 -151 26 0 0 154c0,15 3,28 8,40 6,11 14,20 25,27 11,6 25,10 42,10 17,0 30,-3 41,-9 11,-6 19,-15 25,-27 6,-11 9,-25 9,-40l0 -154 26 0 0 151c0,20 -4,38 -11,54 -7,16 -19,28 -33,36 -15,9 -34,13 -56,13zm168 -6l0 -180 20 0 0 76 -4 0c0,-17 2,-31 7,-43 5,-12 12,-21 22,-28 10,-7 23,-10 38,-10l1 0c23,0 40,7 51,21 11,14 17,34 17,60l0 104 -25 0 0 -110c0,-16 -4,-28 -13,-38 -9,-10 -21,-14 -36,-14 -16,0 -29,5 -38,15 -10,10 -14,23 -14,39l0 108 -26 0zm225 0l0 -180 25 0 0 180 -25 0zm-29 -160l0 -20 54 0 0 20 -54 0zm34 -54c-6,0 -11,-2 -14,-5 -3,-3 -5,-7 -5,-12 0,-5 2,-9 5,-12 3,-3 8,-5 14,-5 6,0 11,2 14,5 3,3 4,7 4,12 0,5 -1,9 -4,12 -3,3 -7,5 -14,5zm228 281l0 -122 11 -26c0,18 -4,34 -11,47 -7,13 -16,22 -28,29 -12,7 -25,10 -40,10 -13,0 -25,-2 -36,-7 -11,-5 -20,-12 -28,-21 -8,-9 -13,-19 -18,-30 -4,-11 -6,-23 -6,-36l0 -5c0,-12 2,-24 6,-35 4,-11 10,-21 18,-30 8,-9 17,-16 28,-21 11,-5 23,-7 37,-7 16,0 30,4 42,11 12,7 21,17 28,29 7,12 10,27 11,44l-8 -2 0 -76 20 0 0 248 -26 0zm-64 -85c12,0 23,-3 33,-8 10,-6 18,-13 23,-23 6,-10 9,-22 9,-35l0 -17c0,-13 -3,-24 -9,-34 -6,-10 -13,-17 -23,-22 -10,-5 -21,-8 -33,-8 -14,0 -25,3 -35,10 -10,6 -17,15 -23,26 -5,11 -8,24 -8,37 0,14 3,27 8,38 5,11 13,20 23,26 10,6 22,10 35,10zm218 22c-22,0 -38,-7 -49,-21 -11,-14 -17,-33 -17,-58l0 -106 25 0 0 111c0,16 4,28 12,37 8,9 20,14 35,14 15,0 28,-5 37,-15 9,-10 14,-23 14,-39l0 -108 26 0 0 180 -20 0 0 -75 4 0c0,17 -2,31 -7,43 -5,12 -12,21 -21,28 -10,6 -22,10 -36,10l-1 0zm224 1c-15,0 -29,-3 -40,-8 -11,-5 -21,-12 -28,-21 -7,-9 -13,-19 -16,-30 -4,-11 -5,-23 -5,-34l0 -5c0,-12 2,-23 5,-34 4,-11 9,-21 16,-30 7,-9 16,-16 27,-21 11,-5 24,-8 39,-8 19,0 35,4 47,13 13,8 22,19 28,32 6,13 10,27 10,42l0 13 -161 0 0 -20 143 0 -6 10c0,-13 -2,-25 -7,-35 -5,-10 -11,-18 -20,-24 -9,-6 -20,-9 -34,-9 -14,0 -26,3 -35,10 -9,7 -16,15 -21,26 -5,11 -7,23 -7,37 0,14 2,26 7,37 5,11 12,20 21,27 10,7 22,10 37,10 16,0 28,-4 38,-11 10,-7 16,-16 18,-25l24 0c-2,12 -7,22 -14,31 -7,9 -16,15 -28,20 -11,5 -24,7 -38,7zm268 -1c-23,0 -41,-5 -53,-15 -12,-10 -19,-24 -19,-41l24 0c0,9 4,16 12,23 7,7 20,11 37,11 16,0 28,-3 36,-10 8,-7 12,-15 12,-24 0,-9 -3,-16 -10,-21 -7,-5 -16,-8 -29,-9l-20 -2c-16,-2 -30,-7 -40,-15 -10,-8 -15,-20 -15,-34 0,-11 3,-20 8,-28 5,-8 13,-14 23,-19 10,-4 21,-7 35,-7 19,0 35,5 47,14 12,9 18,22 19,39l-24 0c0,-9 -4,-16 -11,-22 -7,-6 -17,-9 -31,-9 -14,0 -25,3 -31,9 -7,6 -10,14 -10,22 0,7 3,14 8,19 5,5 13,8 24,9l20 2c18,2 33,7 44,16 11,8 17,20 17,36 0,11 -3,20 -9,29 -6,9 -14,15 -25,20 -11,5 -24,7 -38,7zm204 1c-15,0 -29,-3 -41,-8 -12,-5 -22,-12 -30,-21 -8,-9 -14,-19 -18,-30 -4,-11 -6,-22 -6,-34l0 -5c0,-12 2,-23 6,-34 4,-11 11,-21 19,-30 8,-9 18,-16 30,-21 12,-5 25,-8 40,-8 15,0 29,3 40,8 12,5 22,12 30,21 8,9 14,19 19,30 4,11 6,23 6,34l0 5c0,12 -2,23 -6,34 -4,11 -10,21 -18,30 -8,9 -18,16 -30,21 -12,5 -25,8 -41,8zm0 -23c15,0 28,-3 38,-10 10,-7 18,-16 24,-27 5,-11 8,-23 8,-37 0,-14 -3,-26 -8,-37 -6,-11 -14,-20 -24,-26 -10,-6 -23,-10 -37,-10 -14,0 -27,3 -37,10 -10,6 -18,15 -24,26 -6,11 -8,23 -8,37 0,13 3,26 8,37 5,11 13,20 24,27 10,7 23,10 38,10zm149 17l0 -248 26 0 0 248 -26 0zm-26 -228l0 -21 52 0 0 21 -52 0zm180 233c-22,0 -38,-7 -49,-21 -11,-14 -17,-33 -17,-58l0 -106 25 0 0 111c0,16 4,28 12,37 8,9 20,14 35,14 15,0 28,-5 37,-15 9,-10 14,-23 14,-39l0 -108 26 0 0 180 -20 0 0 -75 4 0c0,17 -2,31 -7,43 -5,12 -12,21 -21,28 -10,6 -22,10 -36,10l-1 0zm214 -3c-12,0 -23,-2 -32,-5 -9,-4 -16,-10 -21,-19 -5,-9 -7,-20 -7,-35l0 -180 24 0 0 183c0,10 3,18 9,24 6,6 14,8 24,8l32 0 0 23 -29 0zm-93 -163l0 -19 122 0 0 19 -122 0zm181 161l0 -180 25 0 0 180 -25 0zm-29 -160l0 -20 54 0 0 20 -54 0zm34 -54c-6,0 -11,-2 -14,-5 -3,-3 -5,-7 -5,-12 0,-5 2,-9 5,-12 3,-3 8,-5 14,-5 6,0 11,2 14,5 3,3 4,7 4,12 0,5 -1,9 -4,12 -3,3 -7,5 -14,5zm167 219c-15,0 -29,-3 -41,-8 -12,-5 -22,-12 -30,-21 -8,-9 -14,-19 -18,-30 -4,-11 -6,-22 -6,-34l0 -5c0,-12 2,-23 6,-34 4,-11 11,-21 19,-30 8,-9 18,-16 30,-21 12,-5 25,-8 40,-8 15,0 29,3 40,8 12,5 22,12 30,21 8,9 14,19 19,30 4,11 6,23 6,34l0 5c0,12 -2,23 -6,34 -4,11 -10,21 -18,30 -8,9 -18,16 -30,21 -12,5 -25,8 -41,8zm0 -23c15,0 28,-3 38,-10 10,-7 18,-16 24,-27 5,-11 8,-23 8,-37 0,-14 -3,-26 -8,-37 -6,-11 -14,-20 -24,-26 -10,-6 -23,-10 -37,-10 -14,0 -27,3 -37,10 -10,6 -18,15 -24,26 -6,11 -8,23 -8,37 0,13 3,26 8,37 5,11 13,20 24,27 10,7 23,10 38,10zm147 17l0 -180 20 0 0 76 -4 0c0,-17 2,-31 7,-43 5,-12 12,-21 22,-28 10,-7 23,-10 38,-10l1 0c23,0 40,7 51,21 11,14 17,34 17,60l0 104 -25 0 0 -110c0,-16 -4,-28 -13,-38 -9,-10 -21,-14 -36,-14 -16,0 -29,5 -38,15 -10,10 -14,23 -14,39l0 108 -26 0zm273 5c-23,0 -41,-5 -53,-15 -12,-10 -19,-24 -19,-41l24 0c0,9 4,16 12,23 7,7 20,11 37,11 16,0 28,-3 36,-10 8,-7 12,-15 12,-24 0,-9 -3,-16 -10,-21 -7,-5 -16,-8 -29,-9l-20 -2c-16,-2 -30,-7 -40,-15 -10,-8 -15,-20 -15,-34 0,-11 3,-20 8,-28 5,-8 13,-14 23,-19 10,-4 21,-7 35,-7 19,0 35,5 47,14 12,9 18,22 19,39l-24 0c0,-9 -4,-16 -11,-22 -7,-6 -17,-9 -31,-9 -14,0 -25,3 -31,9 -7,6 -10,14 -10,22 0,7 3,14 8,19 5,5 13,8 24,9l20 2c18,2 33,7 44,16 11,8 17,20 17,36 0,11 -3,20 -9,29 -6,9 -14,15 -25,20 -11,5 -24,7 -38,7zm195 -5l0 -189c0,-21 6,-37 18,-47 12,-10 29,-15 52,-15l23 0 0 36 -27 0c-7,0 -12,2 -16,6 -4,4 -6,9 -6,16l0 121 0 72 -44 0zm-23 -147l0 -35 119 0 0 35 -119 0zm236 153c-16,0 -31,-3 -43,-8 -12,-5 -23,-12 -32,-21 -9,-9 -15,-19 -20,-30 -4,-11 -7,-23 -7,-35l0 -7c0,-13 2,-25 7,-36 5,-11 11,-22 20,-31 9,-9 19,-16 32,-21 12,-5 27,-8 42,-8 16,0 30,3 42,8 12,5 23,12 32,21 9,9 15,19 20,31 5,11 7,24 7,36l0 7c0,12 -2,24 -7,35 -4,11 -11,21 -20,30 -9,9 -19,16 -32,21 -12,5 -27,8 -43,8zm0 -40c12,0 21,-3 29,-8 8,-5 14,-12 18,-21 4,-9 6,-19 6,-30 0,-11 -2,-21 -6,-30 -4,-9 -10,-16 -18,-21 -8,-5 -18,-8 -29,-8 -11,0 -21,3 -29,8 -8,5 -14,12 -19,21 -4,9 -6,19 -6,30 0,11 2,21 6,30 4,9 10,16 18,21 8,5 18,8 29,8zm142 34l0 -185 37 0 0 78 -1 0c0,-27 6,-47 17,-60 11,-14 28,-20 50,-20l7 0 0 41 -13 0c-16,0 -28,4 -37,13 -9,9 -13,21 -13,37l0 96 -47 0zm210 73l0 -40 35 0c7,0 12,-1 16,-3 4,-2 8,-4 11,-8 3,-4 5,-9 7,-15l50 -191 45 0 -55 201c-4,14 -9,25 -15,33 -7,8 -15,14 -25,18 -10,4 -23,5 -38,5l-30 0zm57 -77l0 -37 39 0 0 37 -39 0zm-16 0l-60 -181 48 0 57 181 -45 0zm240 11c-16,0 -31,-3 -43,-8 -12,-5 -23,-12 -32,-21 -9,-9 -15,-19 -20,-30 -4,-11 -7,-23 -7,-35l0 -7c0,-13 2,-25 7,-36 5,-11 11,-22 20,-31 9,-9 19,-16 32,-21 12,-5 27,-8 42,-8 16,0 30,3 42,8 12,5 23,12 32,21 9,9 15,19 20,31 5,11 7,24 7,36l0 7c0,12 -2,24 -7,35 -4,11 -11,21 -20,30 -9,9 -19,16 -32,21 -12,5 -27,8 -43,8zm0 -40c12,0 21,-3 29,-8 8,-5 14,-12 18,-21 4,-9 6,-19 6,-30 0,-11 -2,-21 -6,-30 -4,-9 -10,-16 -18,-21 -8,-5 -18,-8 -29,-8 -11,0 -21,3 -29,8 -8,5 -14,12 -19,21 -4,9 -6,19 -6,30 0,11 2,21 6,30 4,9 10,16 18,21 8,5 18,8 29,8zm205 40c-21,0 -38,-7 -49,-21 -12,-14 -18,-35 -18,-63l0 -107 47 0 0 111c0,11 3,20 10,27 6,7 15,10 26,10 11,0 20,-4 27,-11 7,-7 10,-17 10,-29l0 -109 47 0 0 185 -37 0 0 -79 4 0c0,19 -2,34 -7,47 -5,12 -12,22 -21,28 -10,6 -21,10 -36,10l-2 0zm147 -6l0 -54 53 0 0 54 -53 0z"/>
 </g>
</svg>
